<?xml version="1.0" encoding="iso-8859-1"?>
<!-- Generator: Adobe Illustrator 16.0.0, SVG Export Plug-In . SVG Version: 6.00 Build 0)  -->
<!DOCTYPE svg PUBLIC "-//W3C//DTD SVG 1.1//EN" "http://www.w3.org/Graphics/SVG/1.1/DTD/svg11.dtd">
<svg xmlns="http://www.w3.org/2000/svg" xmlns:xlink="http://www.w3.org/1999/xlink" version="1.1" id="Capa_1" x="0px" y="0px" width="512px" height="512px" viewBox="0 0 45.941 45.941" style="enable-background:new 0 0 45.941 45.941;" xml:space="preserve">
<g>
	<g>
		<path d="M37.757,37.756H36.91c-0.52,0-0.945,0.41-0.945,0.93v2.59h-1.518l-5.334-15.85c2.641-1.428,4.74-3.742,5.914-6.499h2.307    c0.635,0,1.148-0.51,1.148-1.145c0-0.634-0.515-1.145-1.148-1.145H35.76c0.163-0.763,0.264-1.526,0.29-2.29H9.887    c0.027,0.763,0.127,1.526,0.29,2.29H8.602c-0.635,0-1.148,0.511-1.148,1.145c0,0.635,0.514,1.145,1.148,1.145h2.308    c1.173,2.756,3.272,5.07,5.913,6.498l-5.334,15.851H9.972v-2.59c0-0.521-0.427-0.93-0.946-0.93H8.179    c-0.52,0-0.921,0.41-0.921,0.93v6.305c0,0.521,0.401,0.95,0.921,0.95h0.847c0.52,0,0.946-0.431,0.946-0.95v-2.57h1.132    l-0.066,0.196c-0.201,0.602,0.121,1.253,0.723,1.456c0.123,0.041,0.246,0.061,0.367,0.061c0.48,0,0.929-0.303,1.09-0.783    l0.313-0.929h18.877l0.312,0.929c0.161,0.48,0.609,0.783,1.09,0.783c0.121,0,0.244-0.02,0.366-0.061    c0.603-0.203,0.925-0.854,0.724-1.456l-0.065-0.196h1.133v2.569c0,0.521,0.427,0.95,0.945,0.95h0.847    c0.52,0,0.924-0.431,0.924-0.95v-6.305C38.68,38.166,38.275,37.756,37.757,37.756z M13.915,41.276l5.018-14.937    c0.919,0.302,1.895,0.504,2.87,0.593v10.884c0,0.635,0.53,1.148,1.166,1.148c0.635,0,1.166-0.515,1.166-1.148V26.932    c0.975-0.088,1.95-0.291,2.868-0.592l5.019,14.937L13.915,41.276L13.915,41.276z" fill="#FFFFFF"/>
		<path d="M24.607,9.176c0.057,0.168,0.305,0.131,0.31-0.046c0.03-1.113-0.248-2.804-1.949-3.885    c-2.642-1.678-1.513-3.643-0.566-4.995c0.086-0.123-0.031-0.286-0.176-0.243c-0.961,0.284-3.218,1.207-3.218,3.596    C19.008,6.905,23.668,6.373,24.607,9.176z" fill="#FFFFFF"/>
		<path d="M18.864,8.462c0.081,0.149,0.31,0.08,0.298-0.089c-0.046-0.653-0.301-1.482-1.184-2.043    c-1.518-0.965-0.995-2.084-0.446-2.901c0.085-0.126-0.04-0.289-0.185-0.239c-0.647,0.226-1.785,0.812-1.785,2.138    C15.563,7.231,18.1,7.046,18.864,8.462z" fill="#FFFFFF"/>
		<path d="M29.208,8.462c0.08,0.149,0.31,0.08,0.298-0.089C29.46,7.72,29.204,6.891,28.322,6.33    c-1.519-0.965-0.996-2.084-0.447-2.901c0.086-0.126-0.039-0.289-0.184-0.239c-0.647,0.226-1.785,0.812-1.785,2.138    C25.906,7.231,28.443,7.046,29.208,8.462z" fill="#FFFFFF"/>
	</g>
</g>
<g>
</g>
<g>
</g>
<g>
</g>
<g>
</g>
<g>
</g>
<g>
</g>
<g>
</g>
<g>
</g>
<g>
</g>
<g>
</g>
<g>
</g>
<g>
</g>
<g>
</g>
<g>
</g>
<g>
</g>
</svg>
