<?xml version="1.0" encoding="iso-8859-1"?>
<!-- Generator: Adobe Illustrator 18.0.0, SVG Export Plug-In . SVG Version: 6.00 Build 0)  -->
<!DOCTYPE svg PUBLIC "-//W3C//DTD SVG 1.1//EN" "http://www.w3.org/Graphics/SVG/1.1/DTD/svg11.dtd">
<svg xmlns="http://www.w3.org/2000/svg" xmlns:xlink="http://www.w3.org/1999/xlink" version="1.1" id="Capa_1" x="0px" y="0px" viewBox="0 0 297 297" style="enable-background:new 0 0 297 297;" xml:space="preserve" width="512px" height="512px">
<path d="M294.267,91.364c8.086-33.521-9.109-51.376-10.127-52.395c-1.369-1.367-3.109-2.3-5.008-2.679  c-2.965-0.594-73.279-14.525-130.92-14.525S20.255,35.697,17.29,36.291c-1.896,0.379-3.639,1.312-5.006,2.679  c-1.031,1.032-18.652,19.343-9.793,53.704C0.079,106.207-8.581,169.375,31.05,209.01c28.084,28.086,28.773,55.314,28.789,56.395  c0,5.411,4.387,9.798,9.797,9.798c5.412,0,9.799-4.387,9.799-9.798c0-1.458-0.393-36.112-34.527-70.25  c-18.568-18.57-24.082-44.631-25.045-65.613c1.799,2.691,3.74,5.437,5.844,8.242c44.801,59.736,117.697,73.392,120.777,73.942  c0.57,0.103,1.15,0.154,1.729,0.154c0.578,0,1.156-0.052,1.727-0.154c3.082-0.551,75.979-14.206,120.779-73.942  c2.344-3.127,4.488-6.181,6.457-9.165c-0.844,21.138-6.24,47.69-25.084,66.536c-34.135,34.138-34.525,68.792-34.525,70.25  c0,5.411,4.385,9.83,9.797,9.83c5.41,0,9.799-4.353,9.799-9.765c0.014-1.146,0.703-28.374,28.787-56.46  C307.073,167.881,296.2,101.418,294.267,91.364z M140.985,88.399c-0.672,1.48-16.846,36.259-50.27,36.259  c-34.084,0-49.943-48.166-50.602-50.217c-0.766-2.385-0.346-4.992,1.129-7.015c1.477-2.023,3.83-3.221,6.334-3.221h43.139  c31.436,0,47.736,14.543,48.416,15.162C141.642,81.658,142.39,85.305,140.985,88.399z M256.341,74.441  c-0.658,2.051-16.523,50.217-50.598,50.217c-33.42,0-49.602-34.777-50.273-36.258c-1.406-3.096-0.656-6.743,1.855-9.033  c0.68-0.619,16.986-15.161,48.418-15.161h43.135c2.504,0,4.857,1.197,6.334,3.221C256.686,69.45,257.106,72.057,256.341,74.441z" fill="#FFFFFF"/>
<g>
</g>
<g>
</g>
<g>
</g>
<g>
</g>
<g>
</g>
<g>
</g>
<g>
</g>
<g>
</g>
<g>
</g>
<g>
</g>
<g>
</g>
<g>
</g>
<g>
</g>
<g>
</g>
<g>
</g>
</svg>
