<?xml version="1.0" encoding="iso-8859-1"?>
<!-- Generator: Adobe Illustrator 19.0.0, SVG Export Plug-In . SVG Version: 6.00 Build 0)  -->
<svg version="1.1" id="Layer_1" xmlns="http://www.w3.org/2000/svg" xmlns:xlink="http://www.w3.org/1999/xlink" x="0px" y="0px"
	 viewBox="0 0 512 512" style="enable-background:new 0 0 512 512;" xml:space="preserve">
<g>
	<g>
		<path d="M472.12,118.727c-25.389-39.892-61.21-71.958-103.591-92.729c-4.962-2.435-10.957-0.383-13.39,4.582
			c-2.432,4.962-0.382,10.957,4.582,13.39c39.074,19.151,72.102,48.718,95.514,85.504c24.042,37.776,36.75,81.528,36.75,126.526
			c0,130.124-105.862,235.985-235.985,235.985S20.015,386.122,20.015,256S125.876,20.015,256,20.015
			c5.527,0,10.007-4.481,10.007-10.007C266.007,4.481,261.527,0,256,0C114.84,0,0,114.84,0,256s114.84,256,256,256
			s256-114.84,256-256C512,207.187,498.21,159.72,472.12,118.727z"/>
	</g>
</g>
<g>
	<g>
		<path d="M222.058,99.07c-44.543,0-80.785,36.24-80.785,80.785c0,44.545,36.24,80.785,80.785,80.785
			c44.545,0,80.785-36.24,80.785-80.785S266.602,99.07,222.058,99.07z M222.059,240.625c-33.509,0-60.77-27.261-60.77-60.77
			s27.261-60.77,60.77-60.77s60.77,27.261,60.77,60.77C282.829,213.363,255.568,240.625,222.059,240.625z"/>
	</g>
</g>
<g>
	<g>
		<path d="M393.43,125.281c-30.091,0-54.573,24.482-54.573,54.573s24.482,54.573,54.573,54.573s54.573-24.482,54.573-54.573
			S423.522,125.281,393.43,125.281z M393.43,214.415c-19.055,0-34.559-15.503-34.559-34.559s15.503-34.559,34.559-34.559
			c19.055,0,34.559,15.503,34.559,34.559C427.989,198.911,412.486,214.415,393.43,214.415z"/>
	</g>
</g>
<g>
	<g>
		<path d="M315.066,317.897c-23.943,0-43.424,19.481-43.424,43.424c0,23.944,19.481,43.424,43.424,43.424
			c23.943,0,43.424-19.481,43.424-43.424S339.009,317.897,315.066,317.897z M315.066,384.731c-12.907,0-23.409-10.502-23.409-23.409
			s10.502-23.409,23.409-23.409c12.908,0,23.409,10.502,23.409,23.409S327.973,384.731,315.066,384.731z"/>
	</g>
</g>
<g>
	<g>
		<circle cx="243.445" cy="179.852" r="10.007"/>
	</g>
</g>
<g>
	<g>
		<circle cx="400.534" cy="179.852" r="10.007"/>
	</g>
</g>
<g>
	<g>
		<circle cx="330.363" cy="21.536" r="10.007"/>
	</g>
</g>
<g>
</g>
<g>
</g>
<g>
</g>
<g>
</g>
<g>
</g>
<g>
</g>
<g>
</g>
<g>
</g>
<g>
</g>
<g>
</g>
<g>
</g>
<g>
</g>
<g>
</g>
<g>
</g>
<g>
</g>
</svg>
