<svg xmlns="http://www.w3.org/2000/svg" width="41.531" height="19.969" viewBox="0 0 41.531 19.969">
  <defs>
    <style>
      .cls-1 {
        fill: #c7b299;
        fill-rule: evenodd;
      }
    </style>
  </defs>
  <path class="cls-1" d="M871.142,747.572l7.247,7.434a2.361,2.361,0,0,0,.692.482,2.78,2.78,0,0,0,1.551.471h28.584a2.792,2.792,0,0,0,2.792-2.792v-14.39a2.792,2.792,0,0,0-2.792-2.792H880.632a2.775,2.775,0,0,0-1.167.257,2.362,2.362,0,0,0-.943.579l-7.38,7.38A2.383,2.383,0,0,0,871.142,747.572Zm7.722-4.091a2.4,2.4,0,1,1-2.4,2.4A2.4,2.4,0,0,1,878.864,743.481Z" transform="translate(-870.469 -736)"/>
</svg>
